<svg xmlns="http://www.w3.org/2000/svg" xmlns:xlink="http://www.w3.org/1999/xlink" width="226.189" height="71.375" viewBox="0 0 226.189 71.375">
  <defs>
    <style>
      .cls-1 {
        fill: #111344;
      }

      .cls-2 {
        clip-path: url(#clip-path);
      }
    </style>
    <clipPath id="clip-path">
      <rect id="Rectangle_2" data-name="Rectangle 2" class="cls-1" width="226.189" height="71.375"/>
    </clipPath>
  </defs>
  <g id="Logo_hvid" class="cls-2">
    <path id="Path_1" data-name="Path 1" class="cls-1" d="M30.032,31.225H22.248l-2.023-6.553h-9.94L8.218,31.225H.609L10.812,2.2h9.06Zm-18.34-11.7h7.125L15.255,7.783Zm50.744,11.7H54.651l-2.023-6.553h-9.94l-2.067,6.553H33.012L43.216,2.2h9.06ZM44.1,19.526h7.125L47.658,7.783Zm31.92,5.85H90.573v5.849H68.451V2.2h7.565Zm21.532,5.849V2.2h14.118q5.366.044,7.917,2.067a6.851,6.851,0,0,1,2.551,5.762,6.6,6.6,0,0,1-1.451,4.266,6.946,6.946,0,0,1-4.442,2.243v.044a7.582,7.582,0,0,1,4.97,2.331A6.448,6.448,0,0,1,122.88,23.4a6.952,6.952,0,0,1-2.639,5.806q-2.639,2.023-7.917,2.023Zm7.3-5.322h6.2a4.764,4.764,0,0,0,3.079-.836,2.959,2.959,0,0,0,1.011-2.419,2.781,2.781,0,0,0-1.011-2.331,4.764,4.764,0,0,0-3.079-.836h-6.2Zm0-11.831h5.5q4.046,0,4.046-3.167t-4.046-3.167h-5.5ZM143.27,1.758a15.043,15.043,0,0,1,7.565,1.8,11.829,11.829,0,0,1,4.926,5.1,17.447,17.447,0,0,1,1.715,8.049,17.448,17.448,0,0,1-1.715,8.049,12.1,12.1,0,0,1-4.926,5.146,15.346,15.346,0,0,1-7.565,1.759,15.6,15.6,0,0,1-7.609-1.759,12.1,12.1,0,0,1-4.926-5.146,17.447,17.447,0,0,1-1.715-8.049,17.447,17.447,0,0,1,1.715-8.049,11.83,11.83,0,0,1,4.926-5.1A15.293,15.293,0,0,1,143.27,1.758Zm0,5.937a6.076,6.076,0,0,0-3.562,1.012,6.164,6.164,0,0,0-2.2,3.035,14.194,14.194,0,0,0-.748,4.97,14.423,14.423,0,0,0,.748,4.97,6.164,6.164,0,0,0,2.2,3.035,6.076,6.076,0,0,0,3.562,1.012,5.874,5.874,0,0,0,3.518-1.012,6.166,6.166,0,0,0,2.2-3.035,14.423,14.423,0,0,0,.748-4.97,14.194,14.194,0,0,0-.748-4.97,6.166,6.166,0,0,0-2.2-3.035A5.874,5.874,0,0,0,143.27,7.7Zm35.9-5.5q5.19,0,8.049,2.463a7.987,7.987,0,0,1,2.9,6.465,8.232,8.232,0,0,1-2.859,6.773q-2.859,2.331-8.049,2.331l-.7.4h-5.761v10.6h-7.433V2.2ZM178.116,15.26a5.21,5.21,0,0,0,3.3-.88,3.391,3.391,0,0,0,1.1-2.815,3.336,3.336,0,0,0-1.1-2.771,5.21,5.21,0,0,0-3.3-.88h-5.366V15.26Zm4.442,1.583,9.28,14.382h-8.356l-7.433-12.71Zm27.428,14.822a13.786,13.786,0,0,1-6.905-1.715,11.664,11.664,0,0,1-4.662-5.058,18.048,18.048,0,0,1-1.671-8.137,17.081,17.081,0,0,1,1.759-8.049,12.3,12.3,0,0,1,5.014-5.146,15.892,15.892,0,0,1,7.741-1.8,15.462,15.462,0,0,1,7.961,1.8,11.489,11.489,0,0,1,4.706,5.63l-6.993,2.771a5.4,5.4,0,0,0-2.023-3.255A6.155,6.155,0,0,0,211.306,7.7a6.372,6.372,0,0,0-3.694,1.056,6.193,6.193,0,0,0-2.331,3.035,13.337,13.337,0,0,0-.792,4.926,14.494,14.494,0,0,0,.792,5.146,6.323,6.323,0,0,0,2.419,3.079,7.707,7.707,0,0,0,4,.968,8.305,8.305,0,0,0,2.331-.308,5.987,5.987,0,0,0,1.847-.88,4.325,4.325,0,0,0,1.232-1.5,4.96,4.96,0,0,0,.44-2.155v-.44H210.91V15.568h13.062V31.225h-5.146l-.572-6.817,1.232,1.056a8.331,8.331,0,0,1-3.343,4.618A10.9,10.9,0,0,1,209.986,31.665ZM7.336,37.6a6.61,6.61,0,0,1,5.784,2.681l-2.006,1.963a3.752,3.752,0,0,0-3.758-2.259c-1.752,0-2.639.739-2.639,1.731,0,.929.76,1.435,3.209,1.879,3.758.7,5.172,1.858,5.172,4.18,0,2.618-2.386,4.18-5.721,4.18-3.167,0-4.961-.908-6.143-2.6l1.731-2.069a4.386,4.386,0,0,0,4.307,2.28c1.794,0,2.766-.57,2.766-1.626,0-.76-.739-1.2-3.04-1.668-3.884-.781-5.362-1.963-5.362-4.286C1.636,39.519,3.726,37.6,7.336,37.6Zm33.769.211V51.742H38.487V44.48l.127-4.074h-.042L34.708,51.742H32.323L28.481,40.406h-.042l.148,4.074v7.262H25.947V37.809H30.17l2.512,7.6.887,3.145h.042l.908-3.124,2.491-7.621ZM57.775,49.4h7.832v2.343H54.862V37.809h10.45v2.343H57.775v3.462h5.932v2.238H57.775Zm29.34,2.343L83.843,46.4H81.225v5.341H78.355V37.809H84.5c3.167,0,5.067,1.562,5.067,4.307a3.875,3.875,0,0,1-2.85,3.969l3.673,5.658Zm-5.89-11.611v4.053h2.892c1.689,0,2.47-.633,2.47-2.027s-.781-2.027-2.47-2.027Zm32.384-2.322v2.343h-4.666v11.59H106.03V40.152h-4.687V37.809ZM129.037,49.4h7.832v2.343H126.123V37.809h10.45v2.343h-7.537v3.462h5.932v2.238h-5.932ZM156.3,44.9v2.491h-7.452V44.9Zm36.335-7.3c4.138,0,6.692,2.7,6.692,7.178s-2.554,7.178-6.692,7.178-6.713-2.7-6.713-7.178S188.5,37.6,192.639,37.6Zm0,2.385c-2.343,0-3.694,1.689-3.694,4.792s1.351,4.792,3.694,4.792c2.322,0,3.673-1.689,3.673-4.792S194.962,39.983,192.639,39.983Zm25.253,4.391h6.587v7.368h-2.132l-.063-1.668a4.641,4.641,0,0,1-4.117,1.879c-3.821,0-6.46-2.618-6.46-7.157,0-4.476,2.639-7.2,6.777-7.2,3.019,0,4.834,1.055,5.932,3.42l-2.681,1.161a3.035,3.035,0,0,0-3.167-2.2c-2.385,0-3.842,1.689-3.842,4.792,0,3.167,1.33,4.834,3.905,4.834,1.879,0,3.336-.908,3.336-2.766v-.316h-4.074ZM7.336,58.115A6.61,6.61,0,0,1,13.121,60.8l-2.006,1.963A3.752,3.752,0,0,0,7.357,60.5c-1.752,0-2.639.739-2.639,1.731,0,.929.76,1.435,3.209,1.879,3.758.7,5.172,1.858,5.172,4.18,0,2.618-2.386,4.18-5.721,4.18-3.167,0-4.961-.908-6.143-2.6L2.966,67.8a4.386,4.386,0,0,0,4.307,2.28c1.794,0,2.766-.57,2.766-1.626,0-.76-.739-1.2-3.04-1.668-3.884-.781-5.362-1.963-5.362-4.286C1.636,60.036,3.726,58.115,7.336,58.115Zm20.87.211c3.23,0,5.13,1.626,5.13,4.476,0,2.766-1.9,4.391-5.13,4.391H25.272v5.066H22.358V58.326Zm-.443,6.608c1.816,0,2.618-.739,2.618-2.153s-.8-2.132-2.618-2.132H25.272v4.286Zm20.8-6.819c4.138,0,6.692,2.7,6.692,7.178s-2.554,7.178-6.692,7.178-6.713-2.7-6.713-7.178S44.43,58.115,48.567,58.115Zm0,2.385c-2.343,0-3.694,1.689-3.694,4.792s1.351,4.792,3.694,4.792c2.322,0,3.673-1.689,3.673-4.792S50.889,60.5,48.567,60.5ZM73.5,72.259l-3.272-5.341H67.614v5.341H64.743V58.326h6.143c3.167,0,5.067,1.562,5.067,4.307A3.875,3.875,0,0,1,73.1,66.6l3.673,5.658Zm-5.89-11.611V64.7h2.892c1.689,0,2.47-.633,2.47-2.027s-.781-2.027-2.47-2.027Zm28.795-2.322v2.343H91.743v11.59H88.83V60.669H84.143V58.326Zm13.621-.211a6.61,6.61,0,0,1,5.784,2.681l-2.005,1.963a3.752,3.752,0,0,0-3.758-2.259c-1.752,0-2.639.739-2.639,1.731,0,.929.76,1.435,3.209,1.879,3.758.7,5.172,1.858,5.172,4.18,0,2.618-2.385,4.18-5.721,4.18-3.167,0-4.961-.908-6.143-2.6L105.66,67.8a4.385,4.385,0,0,0,4.307,2.28c1.794,0,2.766-.57,2.766-1.626,0-.76-.739-1.2-3.04-1.668-3.885-.781-5.362-1.963-5.362-4.286C104.33,60.036,106.42,58.115,110.03,58.115ZM133.9,72.259,129.95,65.9l-1.984,2.259v4.1h-2.913V58.326h2.913v6.608l5.721-6.608h3.378l-5.024,5.7,5.193,8.233Zm14.941-2.343h7.347v2.343h-10.26V58.326h2.913Zm19.223-11.59V72.259h-2.913V58.326Zm22.136,0V72.259h-3.336l-4.877-8.191-1.2-2.344h-.021l.084,2.47v8.064h-2.618V58.326h3.314l4.877,8.17,1.2,2.364h.042l-.084-2.47V58.326Zm13.094,0V72.259h-2.913V58.326ZM222.3,72.259,218.356,65.9l-1.985,2.259v4.1h-2.913V58.326h2.913v6.608l5.721-6.608h3.378l-5.025,5.7,5.193,8.233Z" transform="translate(-0.433 -1.25)"/>
  </g>
</svg>
