<svg width="272" height="109" viewBox="0 0 272 109" fill="none" xmlns="http://www.w3.org/2000/svg">
<g clip-path="url(#clip0_121_2)">
<path d="M115.75 67.18C115.75 79.95 105.76 89.36 93.5 89.36C81.24 89.36 71.25 79.95 71.25 67.18C71.25 54.32 81.24 45 93.5 45C105.76 45 115.75 54.32 115.75 67.18ZM106.01 67.18C106.01 59.2 100.22 53.74 93.5 53.74C86.78 53.74 80.99 59.2 80.99 67.18C80.99 75.08 86.78 80.62 93.5 80.62C100.22 80.62 106.01 75.07 106.01 67.18Z" fill="#EA4335"/>
<path d="M163.75 67.18C163.75 79.95 153.76 89.36 141.5 89.36C129.24 89.36 119.25 79.95 119.25 67.18C119.25 54.33 129.24 45 141.5 45C153.76 45 163.75 54.32 163.75 67.18ZM154.01 67.18C154.01 59.2 148.22 53.74 141.5 53.74C134.78 53.74 128.99 59.2 128.99 67.18C128.99 75.08 134.78 80.62 141.5 80.62C148.22 80.62 154.01 75.07 154.01 67.18Z" fill="#FBBC05"/>
<path d="M209.75 46.34V86.16C209.75 102.54 200.09 109.23 188.67 109.23C177.92 109.23 171.45 102.04 169.01 96.16L177.49 92.63C179 96.24 182.7 100.5 188.66 100.5C195.97 100.5 200.5 95.99 200.5 87.5V84.31H200.16C197.98 87 193.78 89.35 188.48 89.35C177.39 89.35 167.23 79.69 167.23 67.26C167.23 54.74 177.39 45 188.48 45C193.77 45 197.97 47.35 200.16 49.96H200.5V46.35H209.75V46.34ZM201.19 67.26C201.19 59.45 195.98 53.74 189.35 53.74C182.63 53.74 177 59.45 177 67.26C177 74.99 182.63 80.62 189.35 80.62C195.98 80.62 201.19 74.99 201.19 67.26Z" fill="#4285F4"/>
<path d="M225 23V88H215.5V23H225Z" fill="#34A853"/>
<path d="M262.02 74.4802L269.58 79.5202C267.14 83.1302 261.26 89.3502 251.1 89.3502C238.5 89.3502 229.09 79.6102 229.09 67.1702C229.09 53.9802 238.58 44.9902 250.01 44.9902C261.52 44.9902 267.15 54.1502 268.99 59.1002L270 61.6202L240.35 73.9002C242.62 78.3502 246.15 80.6202 251.1 80.6202C256.06 80.6202 259.5 78.1802 262.02 74.4802ZM238.75 66.5002L258.57 58.2702C257.48 55.5002 254.2 53.5702 250.34 53.5702C245.39 53.5702 238.5 57.9402 238.75 66.5002Z" fill="#EA4335"/>
<path d="M35.2901 61.4102V52.0002H67.0001C67.3101 53.6402 67.4701 55.5802 67.4701 57.6802C67.4701 64.7402 65.5401 73.4702 59.3201 79.6902C53.2701 85.9902 45.5401 89.3502 35.3001 89.3502C16.3201 89.3502 0.360107 73.8902 0.360107 54.9102C0.360107 35.9302 16.3201 20.4702 35.3001 20.4702C45.8001 20.4702 53.2801 24.5902 58.9001 29.9602L52.2601 36.6002C48.2301 32.8202 42.7701 29.8802 35.2901 29.8802C21.4301 29.8802 10.5901 41.0502 10.5901 54.9102C10.5901 68.7702 21.4301 79.9402 35.2901 79.9402C44.2801 79.9402 49.4001 76.3302 52.6801 73.0502C55.3401 70.3902 57.0901 66.5902 57.7801 61.4002L35.2901 61.4102Z" fill="#4285F4"/>
</g>
<defs>
<clipPath id="clip0_121_2">
<rect width="272" height="109" fill="white"/>
</clipPath>
</defs>
</svg>
